<mxfile host="Electron" agent="Mozilla/5.0 (X11; Linux x86_64) AppleWebKit/537.36 (KHTML, like Gecko) draw.io/24.7.8 Chrome/128.0.6613.36 Electron/32.0.1 Safari/537.36" version="24.7.8">
  <diagram id="4OHlktra853td-nATEaD" name="Page-1">
    <mxGraphModel dx="1368" dy="838" grid="1" gridSize="10" guides="1" tooltips="1" connect="1" arrows="1" fold="1" page="1" pageScale="1" pageWidth="850" pageHeight="1100" math="0" shadow="0">
      <root>
        <mxCell id="0" />
        <mxCell id="1" parent="0" />
        <mxCell id="NFTrpatYoSMDDnahwGzO-29" value="" style="rounded=0;whiteSpace=wrap;html=1;fontSize=10;fillColor=#d5e8d4;strokeColor=#82b366;" parent="1" vertex="1">
          <mxGeometry x="10" y="310" width="370" height="60" as="geometry" />
        </mxCell>
        <mxCell id="NFTrpatYoSMDDnahwGzO-22" value="" style="rounded=0;whiteSpace=wrap;html=1;fontSize=10;fillColor=#f5f5f5;fontColor=#333333;strokeColor=#666666;" parent="1" vertex="1">
          <mxGeometry x="10" width="100" height="50" as="geometry" />
        </mxCell>
        <mxCell id="NFTrpatYoSMDDnahwGzO-21" value="" style="rounded=0;whiteSpace=wrap;html=1;fontSize=10;fillColor=#f5f5f5;fontColor=#333333;strokeColor=#666666;" parent="1" vertex="1">
          <mxGeometry x="280" width="100" height="50" as="geometry" />
        </mxCell>
        <mxCell id="NFTrpatYoSMDDnahwGzO-20" value="" style="rounded=0;whiteSpace=wrap;html=1;fontSize=10;fillColor=#f5f5f5;fontColor=#333333;strokeColor=#666666;" parent="1" vertex="1">
          <mxGeometry x="10" y="90" width="370" height="190" as="geometry" />
        </mxCell>
        <mxCell id="NFTrpatYoSMDDnahwGzO-7" style="edgeStyle=orthogonalEdgeStyle;rounded=0;orthogonalLoop=1;jettySize=auto;html=1;exitX=0.5;exitY=1;exitDx=0;exitDy=0;entryX=0.5;entryY=0;entryDx=0;entryDy=0;dashed=1;" parent="1" source="NFTrpatYoSMDDnahwGzO-18" target="NFTrpatYoSMDDnahwGzO-5" edge="1">
          <mxGeometry relative="1" as="geometry">
            <mxPoint x="149.9999999999999" y="180" as="sourcePoint" />
            <Array as="points">
              <mxPoint x="195" y="210" />
              <mxPoint x="150" y="210" />
            </Array>
          </mxGeometry>
        </mxCell>
        <mxCell id="NFTrpatYoSMDDnahwGzO-8" style="edgeStyle=orthogonalEdgeStyle;rounded=0;orthogonalLoop=1;jettySize=auto;html=1;exitX=0.5;exitY=1;exitDx=0;exitDy=0;entryX=0.5;entryY=0;entryDx=0;entryDy=0;dashed=1;" parent="1" source="NFTrpatYoSMDDnahwGzO-18" target="NFTrpatYoSMDDnahwGzO-6" edge="1">
          <mxGeometry relative="1" as="geometry">
            <mxPoint x="149.9999999999999" y="180" as="sourcePoint" />
            <Array as="points">
              <mxPoint x="195" y="210" />
              <mxPoint x="330" y="210" />
            </Array>
          </mxGeometry>
        </mxCell>
        <mxCell id="NFTrpatYoSMDDnahwGzO-19" value="" style="edgeStyle=orthogonalEdgeStyle;rounded=0;orthogonalLoop=1;jettySize=auto;html=1;exitX=0.5;exitY=1;exitDx=0;exitDy=0;entryX=0.5;entryY=0;entryDx=0;entryDy=0;fontSize=10;startArrow=classic;startFill=1;labelBackgroundColor=#F5F5F5;" parent="1" source="NFTrpatYoSMDDnahwGzO-1" target="NFTrpatYoSMDDnahwGzO-18" edge="1">
          <mxGeometry relative="1" as="geometry" />
        </mxCell>
        <mxCell id="NFTrpatYoSMDDnahwGzO-1" value="cmcd" style="rounded=0;whiteSpace=wrap;html=1;" parent="1" vertex="1">
          <mxGeometry x="20" y="100" width="350" height="30" as="geometry" />
        </mxCell>
        <mxCell id="NFTrpatYoSMDDnahwGzO-33" value="" style="edgeStyle=orthogonalEdgeStyle;rounded=0;orthogonalLoop=1;jettySize=auto;html=1;exitX=0.5;exitY=1;exitDx=0;exitDy=0;entryX=0.5;entryY=0;entryDx=0;entryDy=0;labelBackgroundColor=#FFFFFF;fontSize=10;startArrow=classic;startFill=1;" parent="1" source="NFTrpatYoSMDDnahwGzO-2" target="NFTrpatYoSMDDnahwGzO-32" edge="1">
          <mxGeometry relative="1" as="geometry" />
        </mxCell>
        <mxCell id="bbwjtnXxSq41FBgl1aNd-2" value="/dev/sev-guest" style="edgeLabel;html=1;align=center;verticalAlign=middle;resizable=0;points=[];" parent="NFTrpatYoSMDDnahwGzO-33" vertex="1" connectable="0">
          <mxGeometry x="-0.04" relative="1" as="geometry">
            <mxPoint as="offset" />
          </mxGeometry>
        </mxCell>
        <mxCell id="NFTrpatYoSMDDnahwGzO-2" value="SNP driver" style="rounded=0;whiteSpace=wrap;html=1;" parent="1" vertex="1">
          <mxGeometry x="20" y="240" width="80" height="30" as="geometry" />
        </mxCell>
        <mxCell id="KcQm-etqAxUh8GQNBZ1X-10" style="edgeStyle=orthogonalEdgeStyle;rounded=0;orthogonalLoop=1;jettySize=auto;html=1;exitX=0.5;exitY=1;exitDx=0;exitDy=0;entryX=0.5;entryY=0;entryDx=0;entryDy=0;" parent="1" source="NFTrpatYoSMDDnahwGzO-5" target="KcQm-etqAxUh8GQNBZ1X-1" edge="1">
          <mxGeometry relative="1" as="geometry" />
        </mxCell>
        <mxCell id="NFTrpatYoSMDDnahwGzO-5" value="TPM driver" style="rounded=0;whiteSpace=wrap;html=1;" parent="1" vertex="1">
          <mxGeometry x="110" y="240" width="80" height="30" as="geometry" />
        </mxCell>
        <mxCell id="NFTrpatYoSMDDnahwGzO-6" value="TDX driver" style="rounded=0;whiteSpace=wrap;html=1;dashed=1;" parent="1" vertex="1">
          <mxGeometry x="290" y="240" width="80" height="30" as="geometry" />
        </mxCell>
        <mxCell id="NFTrpatYoSMDDnahwGzO-10" value="One or multiple compatible drivers can be used at once" style="text;html=1;strokeColor=none;fillColor=none;align=center;verticalAlign=middle;whiteSpace=wrap;rounded=0;fontSize=10;" parent="1" vertex="1">
          <mxGeometry x="390" y="240" width="155" height="30" as="geometry" />
        </mxCell>
        <mxCell id="NFTrpatYoSMDDnahwGzO-14" style="edgeStyle=orthogonalEdgeStyle;rounded=0;orthogonalLoop=1;jettySize=auto;html=1;exitX=0.5;exitY=1;exitDx=0;exitDy=0;entryX=0.5;entryY=0;entryDx=0;entryDy=0;fontSize=10;" parent="1" source="NFTrpatYoSMDDnahwGzO-12" target="NFTrpatYoSMDDnahwGzO-1" edge="1">
          <mxGeometry relative="1" as="geometry" />
        </mxCell>
        <mxCell id="NFTrpatYoSMDDnahwGzO-17" value="aTLS" style="edgeStyle=orthogonalEdgeStyle;rounded=0;orthogonalLoop=1;jettySize=auto;html=1;exitX=1;exitY=0.5;exitDx=0;exitDy=0;entryX=0;entryY=0.5;entryDx=0;entryDy=0;fontSize=10;startArrow=classic;startFill=1;" parent="1" source="NFTrpatYoSMDDnahwGzO-12" target="NFTrpatYoSMDDnahwGzO-13" edge="1">
          <mxGeometry relative="1" as="geometry" />
        </mxCell>
        <mxCell id="NFTrpatYoSMDDnahwGzO-12" value="aTLS client (e.g. testtool)" style="rounded=0;whiteSpace=wrap;html=1;fontSize=10;" parent="1" vertex="1">
          <mxGeometry x="20" y="10" width="80" height="30" as="geometry" />
        </mxCell>
        <mxCell id="NFTrpatYoSMDDnahwGzO-13" value="aTLS server (e.g. testtool)" style="rounded=0;whiteSpace=wrap;html=1;fontSize=10;" parent="1" vertex="1">
          <mxGeometry x="290" y="10" width="80" height="30" as="geometry" />
        </mxCell>
        <mxCell id="NFTrpatYoSMDDnahwGzO-9" value="" style="edgeStyle=orthogonalEdgeStyle;rounded=0;orthogonalLoop=1;jettySize=auto;html=1;exitX=0.5;exitY=1;exitDx=0;exitDy=0;entryX=0.5;entryY=0;entryDx=0;entryDy=0;fontSize=10;" parent="1" source="NFTrpatYoSMDDnahwGzO-13" target="NFTrpatYoSMDDnahwGzO-1" edge="1">
          <mxGeometry x="0.5385" relative="1" as="geometry">
            <mxPoint x="150.09523809523807" y="20" as="sourcePoint" />
            <mxPoint as="offset" />
          </mxGeometry>
        </mxCell>
        <mxCell id="NFTrpatYoSMDDnahwGzO-15" value="Daemon reachable to attesting / verifying components" style="text;html=1;strokeColor=none;fillColor=none;align=center;verticalAlign=middle;whiteSpace=wrap;rounded=0;fontSize=10;" parent="1" vertex="1">
          <mxGeometry x="390" y="100" width="145" height="30" as="geometry" />
        </mxCell>
        <mxCell id="NFTrpatYoSMDDnahwGzO-16" value="Example application making use of the cmcd" style="text;html=1;strokeColor=none;fillColor=none;align=center;verticalAlign=middle;whiteSpace=wrap;rounded=0;fontSize=10;" parent="1" vertex="1">
          <mxGeometry x="390" y="10" width="145" height="30" as="geometry" />
        </mxCell>
        <mxCell id="NFTrpatYoSMDDnahwGzO-3" value="" style="edgeStyle=orthogonalEdgeStyle;rounded=0;orthogonalLoop=1;jettySize=auto;html=1;exitX=0.5;exitY=1;exitDx=0;exitDy=0;fontSize=10;labelBackgroundColor=#F5F5F5;dashed=1;" parent="1" source="NFTrpatYoSMDDnahwGzO-18" target="NFTrpatYoSMDDnahwGzO-2" edge="1">
          <mxGeometry x="-0.7333" relative="1" as="geometry">
            <mxPoint x="149.9999999999999" y="180" as="sourcePoint" />
            <Array as="points">
              <mxPoint x="195" y="210" />
              <mxPoint x="60" y="210" />
            </Array>
            <mxPoint as="offset" />
          </mxGeometry>
        </mxCell>
        <mxCell id="NFTrpatYoSMDDnahwGzO-18" value="attestationreport" style="rounded=0;whiteSpace=wrap;html=1;" parent="1" vertex="1">
          <mxGeometry x="20" y="160" width="350" height="30" as="geometry" />
        </mxCell>
        <mxCell id="NFTrpatYoSMDDnahwGzO-23" value="" style="rounded=0;whiteSpace=wrap;html=1;fontSize=10;fillColor=#f5f5f5;fontColor=#333333;strokeColor=#666666;" parent="1" vertex="1">
          <mxGeometry x="10" y="380" width="10" height="10" as="geometry" />
        </mxCell>
        <mxCell id="NFTrpatYoSMDDnahwGzO-24" value="Software Component" style="text;html=1;strokeColor=none;fillColor=none;align=left;verticalAlign=middle;whiteSpace=wrap;rounded=0;fontSize=10;" parent="1" vertex="1">
          <mxGeometry x="20" y="370" width="100" height="30" as="geometry" />
        </mxCell>
        <mxCell id="NFTrpatYoSMDDnahwGzO-25" value="" style="rounded=0;whiteSpace=wrap;html=1;fontSize=10;" parent="1" vertex="1">
          <mxGeometry x="140" y="380" width="10" height="10" as="geometry" />
        </mxCell>
        <mxCell id="NFTrpatYoSMDDnahwGzO-26" value="golang Package" style="text;html=1;strokeColor=none;fillColor=none;align=left;verticalAlign=middle;whiteSpace=wrap;rounded=0;fontSize=10;" parent="1" vertex="1">
          <mxGeometry x="150" y="370" width="80" height="30" as="geometry" />
        </mxCell>
        <mxCell id="NFTrpatYoSMDDnahwGzO-31" value="Intel TDX CPU" style="rounded=0;whiteSpace=wrap;html=1;" parent="1" vertex="1">
          <mxGeometry x="290" y="320" width="80" height="40" as="geometry" />
        </mxCell>
        <mxCell id="NFTrpatYoSMDDnahwGzO-32" value="AMD PSP" style="rounded=0;whiteSpace=wrap;html=1;" parent="1" vertex="1">
          <mxGeometry x="20" y="320" width="80" height="40" as="geometry" />
        </mxCell>
        <mxCell id="NFTrpatYoSMDDnahwGzO-35" value="" style="rounded=0;whiteSpace=wrap;html=1;fontSize=10;fillColor=#d5e8d4;strokeColor=#82b366;" parent="1" vertex="1">
          <mxGeometry x="240" y="380" width="10" height="10" as="geometry" />
        </mxCell>
        <mxCell id="NFTrpatYoSMDDnahwGzO-36" value="Trusted Firm- and Hardware" style="text;html=1;strokeColor=none;fillColor=none;align=left;verticalAlign=middle;whiteSpace=wrap;rounded=0;fontSize=10;" parent="1" vertex="1">
          <mxGeometry x="250" y="370" width="130" height="30" as="geometry" />
        </mxCell>
        <mxCell id="NFTrpatYoSMDDnahwGzO-38" value="Package for generating and verifying attestation reports" style="text;html=1;strokeColor=none;fillColor=none;align=center;verticalAlign=middle;whiteSpace=wrap;rounded=0;fontSize=10;" parent="1" vertex="1">
          <mxGeometry x="390" y="160" width="145" height="30" as="geometry" />
        </mxCell>
        <mxCell id="NFTrpatYoSMDDnahwGzO-40" value="Example of provided Hardware" style="text;html=1;strokeColor=none;fillColor=none;align=center;verticalAlign=middle;whiteSpace=wrap;rounded=0;fontSize=10;" parent="1" vertex="1">
          <mxGeometry x="390" y="325" width="155" height="30" as="geometry" />
        </mxCell>
        <mxCell id="E1JUX0o9FTvqP_dnnZnt-1" value="" style="endArrow=classic;html=1;rounded=0;dashed=1;" parent="1" edge="1">
          <mxGeometry width="50" height="50" relative="1" as="geometry">
            <mxPoint x="200" y="414.71" as="sourcePoint" />
            <mxPoint x="260" y="414.71" as="targetPoint" />
          </mxGeometry>
        </mxCell>
        <mxCell id="E1JUX0o9FTvqP_dnnZnt-2" value="Optional Communication" style="text;html=1;strokeColor=none;fillColor=none;align=left;verticalAlign=middle;whiteSpace=wrap;rounded=0;fontSize=10;" parent="1" vertex="1">
          <mxGeometry x="260" y="400" width="120" height="30" as="geometry" />
        </mxCell>
        <mxCell id="E1JUX0o9FTvqP_dnnZnt-3" value="" style="endArrow=classic;html=1;rounded=0;" parent="1" edge="1">
          <mxGeometry width="50" height="50" relative="1" as="geometry">
            <mxPoint x="10" y="414.71000000000004" as="sourcePoint" />
            <mxPoint x="70" y="414.71000000000004" as="targetPoint" />
          </mxGeometry>
        </mxCell>
        <mxCell id="E1JUX0o9FTvqP_dnnZnt-4" value="Line of Communication" style="text;html=1;strokeColor=none;fillColor=none;align=left;verticalAlign=middle;whiteSpace=wrap;rounded=0;fontSize=10;" parent="1" vertex="1">
          <mxGeometry x="70" y="400" width="120" height="30" as="geometry" />
        </mxCell>
        <mxCell id="KcQm-etqAxUh8GQNBZ1X-13" style="edgeStyle=orthogonalEdgeStyle;rounded=0;orthogonalLoop=1;jettySize=auto;html=1;exitX=0.5;exitY=0;exitDx=0;exitDy=0;entryX=0.5;entryY=1;entryDx=0;entryDy=0;" parent="1" source="KcQm-etqAxUh8GQNBZ1X-1" target="NFTrpatYoSMDDnahwGzO-5" edge="1">
          <mxGeometry relative="1" as="geometry" />
        </mxCell>
        <mxCell id="bbwjtnXxSq41FBgl1aNd-6" value="/dev/tpm0" style="edgeLabel;html=1;align=center;verticalAlign=middle;resizable=0;points=[];" parent="KcQm-etqAxUh8GQNBZ1X-13" vertex="1" connectable="0">
          <mxGeometry y="1" relative="1" as="geometry">
            <mxPoint as="offset" />
          </mxGeometry>
        </mxCell>
        <mxCell id="KcQm-etqAxUh8GQNBZ1X-1" value="TPM" style="rounded=0;whiteSpace=wrap;html=1;" parent="1" vertex="1">
          <mxGeometry x="110" y="320" width="80" height="40" as="geometry" />
        </mxCell>
        <mxCell id="KcQm-etqAxUh8GQNBZ1X-4" value="SGX driver" style="rounded=0;whiteSpace=wrap;html=1;" parent="1" vertex="1">
          <mxGeometry x="200" y="240" width="80" height="30" as="geometry" />
        </mxCell>
        <mxCell id="KcQm-etqAxUh8GQNBZ1X-9" value="" style="edgeStyle=orthogonalEdgeStyle;rounded=0;orthogonalLoop=1;jettySize=auto;html=1;exitX=0.5;exitY=1;exitDx=0;exitDy=0;fontSize=10;labelBackgroundColor=#F5F5F5;dashed=1;entryX=0.5;entryY=0;entryDx=0;entryDy=0;" parent="1" source="NFTrpatYoSMDDnahwGzO-18" target="KcQm-etqAxUh8GQNBZ1X-4" edge="1">
          <mxGeometry x="-0.7333" relative="1" as="geometry">
            <mxPoint x="149.97" y="190" as="sourcePoint" />
            <Array as="points">
              <mxPoint x="195" y="210" />
              <mxPoint x="240" y="210" />
            </Array>
            <mxPoint as="offset" />
            <mxPoint x="59.97" y="240" as="targetPoint" />
          </mxGeometry>
        </mxCell>
        <mxCell id="bbwjtnXxSq41FBgl1aNd-1" value="" style="endArrow=classic;startArrow=classic;html=1;rounded=0;entryX=0.5;entryY=1;entryDx=0;entryDy=0;exitX=0.5;exitY=0;exitDx=0;exitDy=0;" parent="1" source="NFTrpatYoSMDDnahwGzO-31" target="NFTrpatYoSMDDnahwGzO-6" edge="1">
          <mxGeometry width="50" height="50" relative="1" as="geometry">
            <mxPoint x="400" y="460" as="sourcePoint" />
            <mxPoint x="450" y="410" as="targetPoint" />
          </mxGeometry>
        </mxCell>
        <mxCell id="bbwjtnXxSq41FBgl1aNd-4" value="Intel SGX&amp;nbsp;&lt;span style=&quot;background-color: initial;&quot;&gt;CPU&lt;/span&gt;" style="rounded=0;whiteSpace=wrap;html=1;" parent="1" vertex="1">
          <mxGeometry x="200" y="320" width="80" height="40" as="geometry" />
        </mxCell>
        <mxCell id="bbwjtnXxSq41FBgl1aNd-5" value="" style="endArrow=classic;startArrow=classic;html=1;rounded=0;entryX=0.5;entryY=1;entryDx=0;entryDy=0;" parent="1" source="bbwjtnXxSq41FBgl1aNd-4" target="KcQm-etqAxUh8GQNBZ1X-4" edge="1">
          <mxGeometry width="50" height="50" relative="1" as="geometry">
            <mxPoint x="400" y="460" as="sourcePoint" />
            <mxPoint x="450" y="410" as="targetPoint" />
          </mxGeometry>
        </mxCell>
        <mxCell id="bbwjtnXxSq41FBgl1aNd-7" value="APIs: gRPC, CoAP, TCP, Unix Domain Sockets, library" style="text;html=1;strokeColor=none;fillColor=none;align=center;verticalAlign=middle;whiteSpace=wrap;rounded=0;fontSize=10;" parent="1" vertex="1">
          <mxGeometry x="390" y="60" width="145" height="30" as="geometry" />
        </mxCell>
      </root>
    </mxGraphModel>
  </diagram>
</mxfile>
